# Blender v2.92.0 OBJ File: 'hand2.blend'
# www.blender.org
mtllib hand2.mtl
o Cone.005
v -4.834609 8.277143 0.005756
v -4.867115 8.415322 0.005251
v -4.898853 8.548733 0.017700
v -4.928606 8.672247 0.042624
v -4.955229 8.781118 0.079065
v -4.977699 8.871164 0.125623
v -4.995152 8.938922 0.180508
v -5.006919 8.981790 0.241613
v -5.012547 8.998119 0.306587
v -5.011819 8.987283 0.372935
v -5.004764 8.949697 0.438107
v -4.991652 8.886806 0.499597
v -4.972987 8.801027 0.555044
v -4.949488 8.695658 0.602317
v -4.922056 8.574745 0.639597
v -4.891746 8.442937 0.665454
v -4.859723 8.305298 0.678893
v -4.827218 8.167118 0.679398
v -4.795479 8.033709 0.666950
v -4.765726 7.910194 0.642026
v -4.739103 7.801322 0.605585
v -4.716633 7.711277 0.559027
v -4.699179 7.643519 0.504141
v -4.687413 7.600652 0.443037
v -4.681785 7.584322 0.378062
v -4.682513 7.595159 0.311714
v -4.689569 7.632745 0.246543
v -4.702681 7.695636 0.185052
v -4.721345 7.781414 0.129605
v -4.744845 7.886785 0.082333
v -4.772276 8.007697 0.045052
v -4.802587 8.139505 0.019195
v -3.998243 7.568509 0.410590
vt 0.250000 0.490000
vt 0.296822 0.485388
vt 0.250000 0.250000
vt 0.341844 0.471731
vt 0.383337 0.449553
vt 0.419706 0.419706
vt 0.449553 0.383337
vt 0.471731 0.341844
vt 0.485388 0.296822
vt 0.490000 0.250000
vt 0.485388 0.203178
vt 0.471731 0.158156
vt 0.449553 0.116663
vt 0.419706 0.080294
vt 0.383337 0.050447
vt 0.341844 0.028269
vt 0.296822 0.014612
vt 0.250000 0.010000
vt 0.203178 0.014612
vt 0.158156 0.028269
vt 0.116663 0.050447
vt 0.080294 0.080294
vt 0.050447 0.116663
vt 0.028269 0.158156
vt 0.014611 0.203179
vt 0.010000 0.250000
vt 0.014612 0.296822
vt 0.028269 0.341844
vt 0.050447 0.383337
vt 0.080295 0.419706
vt 0.116663 0.449553
vt 0.158156 0.471731
vt 0.750000 0.490000
vt 0.703179 0.485389
vt 0.658156 0.471731
vt 0.616663 0.449553
vt 0.580295 0.419706
vt 0.550447 0.383337
vt 0.528269 0.341844
vt 0.514612 0.296822
vt 0.510000 0.250000
vt 0.514611 0.203179
vt 0.528269 0.158156
vt 0.550447 0.116663
vt 0.580294 0.080294
vt 0.616663 0.050447
vt 0.658156 0.028269
vt 0.703178 0.014612
vt 0.750000 0.010000
vt 0.796822 0.014612
vt 0.841844 0.028269
vt 0.883337 0.050447
vt 0.919706 0.080294
vt 0.949553 0.116663
vt 0.971731 0.158156
vt 0.985388 0.203178
vt 0.990000 0.250000
vt 0.985388 0.296822
vt 0.971731 0.341844
vt 0.949553 0.383337
vt 0.919706 0.419706
vt 0.883337 0.449553
vt 0.841844 0.471731
vt 0.796822 0.485388
vt 0.203179 0.485389
vn 0.5114 0.1172 -0.8513
vn 0.5742 0.2104 -0.7912
vn 0.6344 0.2968 -0.7137
vn 0.6903 0.3758 -0.6183
vn 0.7394 0.4455 -0.5048
vn 0.7787 0.5036 -0.3741
vn 0.8051 0.5472 -0.2289
vn 0.8159 0.5735 -0.0735
vn 0.8096 0.5807 0.0859
vn 0.7863 0.5682 0.2426
vn 0.7479 0.5372 0.3900
vn 0.6971 0.4900 0.5234
vn 0.6375 0.4292 0.6398
vn 0.5723 0.3574 0.7381
vn 0.5039 0.2764 0.8183
vn 0.4344 0.1871 0.8811
vn 0.3650 0.0892 0.9267
vn 0.2962 -0.0186 0.9549
vn 0.2285 -0.1394 0.9635
vn 0.1621 -0.2773 0.9470
vn 0.0977 -0.4378 0.8938
vn 0.0376 -0.6231 0.7812
vn -0.0113 -0.8196 0.5728
vn -0.0339 -0.9700 0.2408
vn -0.0152 -0.9868 -0.1610
vn 0.0390 -0.8638 -0.5024
vn 0.1078 -0.6834 -0.7220
vn 0.1787 -0.5064 -0.8436
vn 0.2480 -0.3500 -0.9033
vn 0.3155 -0.2135 -0.9246
vn -0.9731 -0.2290 -0.0267
vn 0.3817 -0.0926 -0.9196
vn 0.4470 0.0167 -0.8944
usemtl Material.005
s off
f 1/1/1 2/2/1 33/3/1
f 2/2/2 3/4/2 33/3/2
f 3/4/3 4/5/3 33/3/3
f 4/5/4 5/6/4 33/3/4
f 5/6/5 6/7/5 33/3/5
f 6/7/6 7/8/6 33/3/6
f 7/8/7 8/9/7 33/3/7
f 8/9/8 9/10/8 33/3/8
f 9/10/9 10/11/9 33/3/9
f 10/11/10 11/12/10 33/3/10
f 11/12/11 12/13/11 33/3/11
f 12/13/12 13/14/12 33/3/12
f 13/14/13 14/15/13 33/3/13
f 14/15/14 15/16/14 33/3/14
f 15/16/15 16/17/15 33/3/15
f 16/17/16 17/18/16 33/3/16
f 17/18/17 18/19/17 33/3/17
f 18/19/18 19/20/18 33/3/18
f 19/20/19 20/21/19 33/3/19
f 20/21/20 21/22/20 33/3/20
f 21/22/21 22/23/21 33/3/21
f 22/23/22 23/24/22 33/3/22
f 23/24/23 24/25/23 33/3/23
f 24/25/24 25/26/24 33/3/24
f 25/26/25 26/27/25 33/3/25
f 26/27/26 27/28/26 33/3/26
f 27/28/27 28/29/27 33/3/27
f 28/29/28 29/30/28 33/3/28
f 29/30/29 30/31/29 33/3/29
f 30/31/30 31/32/30 33/3/30
f 1/33/31 32/34/31 31/35/31 30/36/31 29/37/31 28/38/31 27/39/31 26/40/31 25/41/31 24/42/31 23/43/31 22/44/31 21/45/31 20/46/31 19/47/31 18/48/31 17/49/31 16/50/31 15/51/31 14/52/31 13/53/31 12/54/31 11/55/31 10/56/31 9/57/31 8/58/31 7/59/31 6/60/31 5/61/31 4/62/31 3/63/31 2/64/31
f 31/32/32 32/65/32 33/3/32
f 32/65/33 1/1/33 33/3/33
